Coordinates
version=1
nRows=6
nColumns=63
inDegrees=yes

Units are S.I. units (second, meters, Newtons, ...)
If the header above contains a line with 'inDegrees', this indicates whether rotational values are in degrees (yes) or radians (no).

endheader
time	pelvis_tilt	pelvis_list	pelvis_rotation	pelvis_tx	pelvis_ty	pelvis_tz	hip_flexion_r	hip_adduction_r	hip_rotation_r	knee_angle_r	knee_angle_r_beta	ankle_angle_r	subtalar_angle_r	mtp_angle_r	hip_flexion_l	hip_adduction_l	hip_rotation_l	knee_angle_l	knee_angle_l_beta	ankle_angle_l	subtalar_angle_l	mtp_angle_l	L5_S1_Flex_Ext	L5_S1_Lat_Bending	L5_S1_axial_rotation	L4_L5_Flex_Ext	L4_L5_Lat_Bending	L4_L5_axial_rotation	L3_L4_Flex_Ext	L3_L4_Lat_Bending	L3_L4_axial_rotation	L2_L3_Flex_Ext	L2_L3_Lat_Bending	L2_L3_axial_rotation	L1_L2_Flex_Ext	L1_L2_Lat_Bending	L1_L2_axial_rotation	L1_T12_Flex_Ext	L1_T12_Lat_Bending	L1_T12_axial_rotation	Abs_r3	Abs_r2	Abs_r1	Abs_t1	Abs_t2	neck_flexion	neck_bending	neck_rotation	arm_flex_r	arm_add_r	arm_rot_r	elbow_flex_r	pro_sup_r	wrist_flex_r	wrist_dev_r	arm_flex_l	arm_add_l	arm_rot_l	elbow_flex_l	pro_sup_l	wrist_flex_l	wrist_dev_l
     11.24200000	    -53.99330384	      0.00368138	      5.64437750	     -0.26240253	      1.02087901	      0.01317741	     84.23085618	     -8.75309351	     -1.47943100	     55.40498164	      0.96699935	     12.24751897	     -2.11494057	      0.00000000	    129.38072923	      1.70838500	      3.49144101	    107.86962278	      1.88268008	     13.48011817	      0.03025249	      0.00000000	     -0.07171886	     -0.23137032	     -0.85344070	     -0.13318909	     -0.30772252	     -0.90678074	     -0.11782691	     -0.56255378	     -0.90678074	     -0.08196748	     -0.56255378	     -0.74676061	     -0.06659813	     -0.47181035	     -0.69342057	     -0.04098015	     -0.35839262	     -0.64008053	     -0.51228062	     -2.61730728	     -4.74658114	      0.00000000	      0.00000000	     -0.00000000	      0.00000000	      0.00000000	     79.05838830	    -12.43752794	     33.28963851	     19.12582715	     37.77002792	      0.00000000	      5.00000014	     77.25515378	    -12.96770504	     29.73613267	     28.90300460	     45.88300392	      0.00000000	      5.00000014
     11.25000000	    -53.99378962	     -0.00077897	      5.24200978	     -0.26322752	      1.02062833	      0.01348426	     85.04412532	     -8.55854344	     -1.38955003	     57.88611669	      1.01030333	     12.22758848	     -1.71204898	      0.00000000	    129.10579933	      1.54382899	      3.55432960	    106.45767329	      1.85803691	     13.22017094	     -0.88163047	      0.00000000	     -0.07125360	     -0.22240482	     -0.78117454	     -0.13232507	     -0.29579842	     -0.82999795	     -0.11706255	     -0.54075509	     -0.82999795	     -0.08143574	     -0.54075509	     -0.68352773	     -0.06616610	     -0.45352792	     -0.63470432	     -0.04071431	     -0.34450507	     -0.58588091	     -0.50895737	     -2.51588786	     -4.34465847	      0.00000000	      0.00000000	     -0.00000000	      0.00000000	      0.00000000	     79.19147456	    -12.36807763	     33.15168596	     19.06701763	     37.68922623	      0.00000000	      5.00000014	     77.28553324	    -12.96834042	     29.65541542	     28.95525154	     45.86987123	      0.00000000	      5.00000014
     11.25800000	    -53.95809058	     -0.14037557	      4.69579545	     -0.26384437	      1.02026995	      0.01388087	     85.77200700	     -8.17043176	     -1.41498895	     60.30419986	      1.05250684	     12.43551408	     -1.67839074	      0.00000000	    128.75893213	      1.34050324	      3.92532908	    105.07850609	      1.83396590	     13.15377402	     -1.25199674	      0.00000000	     -0.07132277	     -0.19503878	     -0.67843657	     -0.13245352	     -0.25940158	     -0.72083886	     -0.11717618	     -0.47421730	     -0.72083886	     -0.08151480	     -0.47421730	     -0.59363200	     -0.06623033	     -0.39772309	     -0.55122972	     -0.04075383	     -0.30211508	     -0.50882743	     -0.50945144	     -2.20631773	     -3.77326070	      0.00000000	      0.00000000	     -0.00000000	      0.00000000	      0.00000000	     79.31832579	    -12.36507439	     33.07637788	     19.02890540	     37.65443478	      0.00000000	      5.00000014	     77.24432700	    -12.92820475	     29.62684561	     29.03871211	     45.86371463	      0.00000000	      5.00000014
     11.26700000	    -53.94587666	     -0.04574897	      4.37712822	     -0.26452496	      1.02007804	      0.01401980	     86.67550869	     -8.09049316	     -1.20115715	     62.87188237	      1.09732135	     12.06041371	     -1.33716884	      0.00000000	    128.24696346	      1.19459382	      3.86578965	    103.47720790	      1.80601798	     12.93543433	     -2.26611301	      0.00000000	     -0.07205263	     -0.19637351	     -0.62590310	     -0.13380894	     -0.26117676	     -0.66502204	     -0.11837526	     -0.47746254	     -0.66502204	     -0.08234895	     -0.47746254	     -0.54766521	     -0.06690807	     -0.40044486	     -0.50854627	     -0.04117087	     -0.30418256	     -0.46942732	     -0.51466472	     -2.22141638	     -3.48108526	      0.00000000	      0.00000000	     -0.00000000	      0.00000000	      0.00000000	     79.44587812	    -12.18774802	     32.73046145	     18.83018561	     37.77406056	      0.00000000	      5.00000014	     77.23995059	    -12.91381266	     29.38970334	     29.00958044	     45.79632436	      0.00000000	      5.00000014
     11.27500000	    -53.88350333	     -0.16795021	      3.81645781	     -0.26486944	      1.01964882	      0.01437475	     87.42301328	     -7.65036250	     -1.11168114	     65.31124049	      1.13989619	     12.30210599	     -1.32276598	      0.00000000	    127.70995405	      0.96767184	      4.28508148	    102.02078019	      1.78059852	     12.95211683	     -2.54541101	      0.00000000	     -0.07384499	     -0.17027771	     -0.52381405	     -0.13713754	     -0.22646935	     -0.55655242	     -0.12131994	     -0.41401322	     -0.55655242	     -0.08439744	     -0.41401322	     -0.45833729	     -0.06857246	     -0.34723031	     -0.42559891	     -0.04219503	     -0.26376017	     -0.39286053	     -0.52746740	     -1.92621551	     -2.91329658	      0.00000000	      0.00000000	     -0.00000000	      0.00000000	      0.00000000	     79.48124599	    -12.22055239	     32.54147215	     18.96056523	     37.94876891	      0.00000000	      5.00000014	     77.10113122	    -12.91922373	     29.28228576	     29.27772395	     45.75252923	      0.00000000	      5.00000014
     11.28300000	    -53.84103305	     -0.28573671	      3.36112910	     -0.26518786	      1.01928418	      0.01458223	     88.20923498	     -7.32168514	     -1.01609171	     67.73226023	      1.18215095	     12.27034647	     -1.32361920	      0.00000000	    127.08089868	      0.81270684	      4.63146066	    100.42685490	      1.75277928	     12.92819543	     -2.93202855	      0.00000000	     -0.07274566	     -0.14475645	     -0.44718916	     -0.13509597	     -0.19252607	     -0.47513848	     -0.11951385	     -0.35196082	     -0.47513848	     -0.08314102	     -0.35196082	     -0.39129052	     -0.06755162	     -0.29518734	     -0.36334119	     -0.04156687	     -0.22422774	     -0.33539187	     -0.51961501	     -1.63751387	     -2.48713195	      0.00000000	      0.00000000	     -0.00000000	      0.00000000	      0.00000000	     79.58067195	    -12.14714438	     32.32882818	     18.86584152	     38.07749872	      0.00000000	      5.00000014	     76.99491143	    -12.89374786	     29.11128609	     29.34664142	     45.70180123	      0.00000000	      5.00000014
